<?xml version="1.0" standalone="no"?><!DOCTYPE svg PUBLIC "-//W3C//DTD SVG 1.1//EN" "http://www.w3.org/Graphics/SVG/1.1/DTD/svg11.dtd"><svg t="1702693245836" class="icon" viewBox="0 0 1024 1024" version="1.1" xmlns="http://www.w3.org/2000/svg" p-id="4596" id="mx_n_1702693245837" xmlns:xlink="http://www.w3.org/1999/xlink" width="64" height="64"><path d="M546.133333 307.2a119.808 119.808 0 1 0 170.666667 0 119.466667 119.466667 0 0 0-170.666667 0z m343.722667-256l10.581333 3.072 10.581334 3.754667a88.064 88.064 0 0 1 54.954666 55.637333 439.296 439.296 0 0 1-38.570666 366.933333 686.08 686.08 0 0 1-105.813334 142.677334l-11.946666 11.946666-11.264 11.264V648.533333c-7.850667 73.045333-63.488 170.666667-165.546667 294.912l-8.874667 10.581334-16.384 19.456a37.546667 37.546667 0 0 1-63.829333-9.898667v-3.413333l-57.344-182.272-5.12-3.754667a910.336 910.336 0 0 1-91.477333-74.752l-14.336-11.946667-13.653334-13.994666a901.461333 901.461333 0 0 1-110.592-136.533334l-3.072-5.12-187.392-59.733333A38.570667 38.570667 0 0 1 42.666667 409.6h2.389333l2.389333-2.048C200.362667 273.066667 313.344 204.8 394.24 211.626667h8.192L409.6 204.8a703.488 703.488 0 0 1 114.688-92.16l13.653333-8.192 12.288-7.509333a424.277333 424.277333 0 0 1 341.333334-45.738667zM324.608 709.973333c61.781333 62.464 68.266667 130.048 0 199.338667-42.325333 43.349333-110.933333 68.266667-204.8 80.213333a105.130667 105.130667 0 0 1-14.677333 0 64.170667 64.170667 0 0 1-55.637334-68.266666v-15.701334c11.605333-90.112 36.522667-155.989333 77.141334-197.290666 69.973333-68.266667 136.192-59.733333 197.973333 1.706666z" fill="#0de1f8" p-id="4597"></path></svg>