<?xml version="1.0" standalone="no"?><!DOCTYPE svg PUBLIC "-//W3C//DTD SVG 1.1//EN" "http://www.w3.org/Graphics/SVG/1.1/DTD/svg11.dtd"><svg t="1753342171322" class="icon" viewBox="0 0 1127 1024" version="1.1" xmlns="http://www.w3.org/2000/svg" p-id="11905" xmlns:xlink="http://www.w3.org/1999/xlink" width="70.4375" height="64"><path d="M1085.136166 25.392997v272.397606l-13.850726 6.925362c-83.104354 3.079478-166.208708 3.079478-249.313063 0a32.212171 32.212171 0 0 1-16.15918-11.542271c-3.079478-41.552177-3.079478-83.104354 0-124.656531a43.662104 43.662104 0 0 1 6.925363-11.542272l230.845429-138.507257c14.963401-3.661208 28.814126-1.352754 41.552177 6.925363zM23.247195 967.242345v-327.800508a9300.148261 9300.148261 0 0 1 240.079246-145.43262c15.466644-4.293725 28.546346-0.44784 39.243723 11.542271l4.616908 253.929971c2.308454 8.462793 7.696387 13.850726 16.15918 16.15918a296.488634 296.488634 0 0 0 73.870537 0l11.542272-11.542271c0.078487-126.595633 3.157965-252.789595 9.233817-378.586503a3389.484957 3389.484957 0 0 1 249.313062-147.741074c11.537655 2.691658 20.771472 8.845997 27.701452 18.467635 3.079478 235.462337 3.079478 470.924674 0 706.38701l-11.542272 11.542272a1719.013567 1719.013567 0 0 1-249.313062 4.616908c-10.004841-3.845885-16.930204-10.771248-20.776089-20.776088a732.906534 732.906534 0 0 0-9.233817-110.805806c-13.518308-7.100805-28.135441-10.175666-43.860631-9.233817-21.330118-3.43498-39.031345 2.723976-53.094449 18.467634l-4.616908 106.188897c-2.308454 8.462793-7.696387 13.850726-16.15918 16.15918a3241.762351 3241.762351 0 0 1-244.696154 0 76.534493 76.534493 0 0 1-18.467635-11.542271z" fill="#1796ff" opacity=".998" p-id="11906"></path><path d="M1085.136166 367.044231v600.198114a76.548344 76.548344 0 0 1-18.467634 11.542271 3120.623904 3120.623904 0 0 1-240.079246 0 53.24219 53.24219 0 0 1-20.776089-16.15918l-2.308454-293.173694a5014.747579 5014.747579 0 0 1 6.925363-302.407511 43.69904 43.69904 0 0 1 11.542271-6.925363c83.104354-3.079478 166.208708-3.079478 249.313063 0 3.43498 4.796968 8.051889 7.105422 13.850726 6.925363z" fill="#1796ff" opacity=".999" p-id="11907"></path></svg>